<?xml version="1.0" encoding="utf-8"?>
<!-- Generator: Adobe Illustrator 15.0.0, SVG Export Plug-In . SVG Version: 6.00 Build 0)  -->
<!DOCTYPE svg PUBLIC "-//W3C//DTD SVG 1.1//EN" "http://www.w3.org/Graphics/SVG/1.1/DTD/svg11.dtd">
<svg version="1.1" id="Layer_1" xmlns="http://www.w3.org/2000/svg" xmlns:xlink="http://www.w3.org/1999/xlink" x="0px" y="0px"
	 width="520.994px" height="127.334px" viewBox="0 0 520.994 127.334" enable-background="new 0 0 520.994 127.334"
	 xml:space="preserve">
<rect x="52.417" y="45.5" fill="#FFFFFF" stroke="#000000" stroke-miterlimit="10" width="44.667" height="22.667"/>
<line fill="none" stroke="#000000" stroke-width="4" stroke-miterlimit="10" x1="0.5" y1="86.834" x2="149" y2="86.834"/>
<rect x="0.5" y="102.833" fill="#FFFFFF" stroke="#000000" stroke-miterlimit="10" width="26.667" height="22.667"/>
<rect x="41.75" y="102.833" fill="#FFFFFF" stroke="#000000" stroke-miterlimit="10" width="26.667" height="22.667"/>
<rect x="81.084" y="102.833" fill="#FFFFFF" stroke="#000000" stroke-miterlimit="10" width="26.667" height="22.667"/>
<rect x="122.332" y="102.833" fill="#FFFFFF" stroke="#000000" stroke-miterlimit="10" width="26.667" height="22.667"/>
<line fill="none" stroke="#000000" stroke-miterlimit="10" x1="13.833" y1="102.833" x2="41.75" y2="86.834"/>
<line fill="none" stroke="#000000" stroke-miterlimit="10" x1="55.083" y1="102.833" x2="68.417" y2="86.834"/>
<line fill="none" stroke="#000000" stroke-miterlimit="10" x1="94.417" y1="102.833" x2="81.084" y2="86.834"/>
<line fill="none" stroke="#000000" stroke-miterlimit="10" x1="135.666" y1="102.833" x2="107.751" y2="86.834"/>
<line fill="none" stroke="#000000" stroke-miterlimit="10" x1="74.75" y1="86.834" x2="74.75" y2="68.167"/>
<text transform="matrix(1 0 0 1 81.084 90.2637)" font-family="'ArialMT'" font-size="20.988">*</text>
<rect x="233.751" y="39.5" fill="#FFFFFF" stroke="#000000" stroke-miterlimit="10" width="75.999" height="30.001"/>
<line fill="none" stroke="#000000" stroke-width="4" stroke-miterlimit="10" x1="197.501" y1="88.167" x2="346" y2="88.167"/>
<rect x="197.501" y="104.167" fill="#FFFFFF" stroke="#000000" stroke-miterlimit="10" width="26.667" height="22.667"/>
<rect x="238.75" y="104.167" fill="#FFFFFF" stroke="#000000" stroke-miterlimit="10" width="26.667" height="22.667"/>
<rect x="278.085" y="104.167" fill="#FFFFFF" stroke="#000000" stroke-miterlimit="10" width="26.667" height="22.667"/>
<rect x="319.333" y="104.167" fill="#FFFFFF" stroke="#000000" stroke-miterlimit="10" width="26.667" height="22.667"/>
<line fill="none" stroke="#000000" stroke-miterlimit="10" x1="210.834" y1="104.167" x2="238.75" y2="88.167"/>
<line fill="none" stroke="#000000" stroke-miterlimit="10" x1="252.084" y1="104.167" x2="265.418" y2="88.167"/>
<line fill="none" stroke="#000000" stroke-miterlimit="10" x1="291.418" y1="104.167" x2="278.085" y2="88.167"/>
<line fill="none" stroke="#000000" stroke-miterlimit="10" x1="332.667" y1="104.167" x2="304.752" y2="88.167"/>
<line fill="none" stroke="#000000" stroke-miterlimit="10" x1="271.75" y1="88.167" x2="271.75" y2="69.501"/>
<text transform="matrix(1 0 0 1 278.085 91.5972)" font-family="'ArialMT'" font-size="20.988">*</text>
<rect x="406.75" y="39.5" fill="#FFFFFF" stroke="#000000" stroke-miterlimit="10" width="75.999" height="30.001"/>
<line fill="none" stroke="#000000" stroke-width="4" stroke-miterlimit="10" x1="370.5" y1="88.167" x2="519" y2="88.167"/>
<rect x="370.5" y="104.167" fill="#FFFFFF" stroke="#000000" stroke-miterlimit="10" width="26.668" height="22.667"/>
<rect x="411.75" y="104.167" fill="#FFFFFF" stroke="#000000" stroke-miterlimit="10" width="26.667" height="22.667"/>
<rect x="451.084" y="104.167" fill="#FFFFFF" stroke="#000000" stroke-miterlimit="10" width="26.668" height="22.667"/>
<rect x="492.333" y="104.167" fill="#FFFFFF" stroke="#000000" stroke-miterlimit="10" width="26.668" height="22.667"/>
<line fill="none" stroke="#000000" stroke-miterlimit="10" x1="383.834" y1="104.167" x2="411.75" y2="88.167"/>
<line fill="none" stroke="#000000" stroke-miterlimit="10" x1="425.084" y1="104.167" x2="438.417" y2="88.167"/>
<line fill="none" stroke="#000000" stroke-miterlimit="10" x1="464.418" y1="104.167" x2="451.084" y2="88.167"/>
<line fill="none" stroke="#000000" stroke-miterlimit="10" x1="505.667" y1="104.167" x2="477.752" y2="88.167"/>
<line fill="none" stroke="#000000" stroke-miterlimit="10" x1="444.75" y1="88.167" x2="444.75" y2="69.501"/>
<text transform="matrix(1 0 0 1 451.0845 91.5972)" font-family="'ArialMT'" font-size="20.988">*</text>
<rect x="233.751" y="0.5" fill="#FFFFFF" stroke="#000000" stroke-miterlimit="10" width="75.999" height="31.667"/>
<rect x="406.75" y="0.5" fill="#FFFFFF" stroke="#000000" stroke-miterlimit="10" width="75.999" height="31.667"/>
<text transform="matrix(1 0 0 1 70.417 60.1675)" font-family="'MyriadPro-Regular'" font-size="12">is</text>
<text transform="matrix(1 0 0 1 138.7505 80.834)" font-family="'MyriadPro-Regular'" font-size="12">ip</text>
<text transform="matrix(1 0 0 1 304.7524 80.834)" font-family="'MyriadPro-Regular'" font-size="12">input_lp</text>
<text transform="matrix(1 0 0 1 253.5996 50.1675)"><tspan x="0" y="0" font-family="'MyriadPro-Regular'" font-size="12">input_lr</tspan><tspan x="-13.5" y="14.4" font-family="'MyriadPro-Regular'" font-size="12">(is,input_fs,0)</tspan></text>
<text transform="matrix(1 0 0 1 470.7505 80.834)" font-family="'MyriadPro-Regular'" font-size="12">output_lp</text>
<text transform="matrix(0.9924 0 0 1 251.3403 10.834)"><tspan x="0" y="0" font-family="'MyriadPro-Regular'" font-size="12">input_fs</tspan><tspan x="-4.452" y="14.4" font-family="'MyriadPro-Regular'" font-size="12">fields: X, Y</tspan></text>
<text transform="matrix(0.9924 0 0 1 420.5171 10.834)"><tspan x="0" y="0" font-family="'MyriadPro-Regular'" font-size="12">output_fs</tspan><tspan x="5.269" y="14.4" font-family="'MyriadPro-Regular'" font-size="12">fields: Z</tspan></text>
<text transform="matrix(1 0 0 1 421.0815 50.1675)"><tspan x="0" y="0" font-family="'MyriadPro-Regular'" font-size="12">output_lr</tspan><tspan x="-13.5" y="14.4" font-family="'MyriadPro-Regular'" font-size="12">(is,output_fs,1)</tspan></text>
</svg>
