<?xml version="1.0" encoding="utf-8"?>
<!-- Generator: Adobe Illustrator 15.0.0, SVG Export Plug-In . SVG Version: 6.00 Build 0)  -->
<!DOCTYPE svg PUBLIC "-//W3C//DTD SVG 1.1//EN" "http://www.w3.org/Graphics/SVG/1.1/DTD/svg11.dtd">
<svg version="1.1" id="Layer_1" xmlns="http://www.w3.org/2000/svg" xmlns:xlink="http://www.w3.org/1999/xlink" x="0px" y="0px"
	 width="581.667px" height="281.333px" viewBox="0 0 581.667 281.333" enable-background="new 0 0 581.667 281.333"
	 xml:space="preserve">
<path fill="#FFFFFF" stroke="#ED1C24" stroke-miterlimit="10" d="M64.5,25.833c0,6.627-5.373,12-12,12h-40c-6.627,0-12-5.373-12-12
	V12.5c0-6.627,5.373-12,12-12h40c6.627,0,12,5.373,12,12V25.833z"/>
<text transform="matrix(1 0 0 1 3.7607 15.834)"><tspan x="0" y="0" font-family="'MyriadPro-Regular'" font-size="12">Init Field ‘X’</tspan><tspan x="11.184" y="14.4" font-family="'MyriadPro-Regular'" font-size="12">Point 0</tspan></text>
<path fill="#FFFFFF" stroke="#ED1C24" stroke-miterlimit="10" d="M135.167,25.833c0,6.627-5.373,12-12,12h-40
	c-6.627,0-12-5.373-12-12V12.5c0-6.627,5.373-12,12-12h40c6.627,0,12,5.373,12,12V25.833z"/>
<text transform="matrix(1 0 0 1 74.4277 15.834)"><tspan x="0" y="0" font-family="'MyriadPro-Regular'" font-size="12">Init Field ‘X’</tspan><tspan x="11.184" y="14.4" font-family="'MyriadPro-Regular'" font-size="12">Point 1</tspan></text>
<path fill="#FFFFFF" stroke="#ED1C24" stroke-miterlimit="10" d="M205.834,25.833c0,6.627-5.373,12-12,12h-40
	c-6.627,0-12-5.373-12-12V12.5c0-6.627,5.373-12,12-12h40c6.627,0,12,5.373,12,12V25.833z"/>
<text transform="matrix(1 0 0 1 145.0942 15.834)"><tspan x="0" y="0" font-family="'MyriadPro-Regular'" font-size="12">Init Field ‘X’</tspan><tspan x="11.184" y="14.4" font-family="'MyriadPro-Regular'" font-size="12">Point 2</tspan></text>
<path fill="#FFFFFF" stroke="#ED1C24" stroke-miterlimit="10" d="M275.833,25.833c0,6.627-5.373,12-12,12h-40
	c-6.627,0-12-5.373-12-12V12.5c0-6.627,5.373-12,12-12h40c6.627,0,12,5.373,12,12V25.833z"/>
<text transform="matrix(1 0 0 1 215.0938 15.834)"><tspan x="0" y="0" font-family="'MyriadPro-Regular'" font-size="12">Init Field ‘X’</tspan><tspan x="11.184" y="14.4" font-family="'MyriadPro-Regular'" font-size="12">Point 3</tspan></text>
<path fill="#FFFFFF" stroke="#ED1C24" stroke-miterlimit="10" d="M369.833,25.833c0,6.627-5.372,12-12,12h-40
	c-6.627,0-12-5.373-12-12V12.5c0-6.627,5.373-12,12-12h40c6.628,0,12,5.373,12,12V25.833z"/>
<text transform="matrix(1 0 0 1 309.2739 15.834)"><tspan x="0" y="0" font-family="'MyriadPro-Regular'" font-size="12">Init Field ‘Y’</tspan><tspan x="11.004" y="14.4" font-family="'MyriadPro-Regular'" font-size="12">Point 0</tspan></text>
<path fill="#FFFFFF" stroke="#ED1C24" stroke-miterlimit="10" d="M440.5,25.833c0,6.627-5.373,12-12,12h-40c-6.628,0-12-5.373-12-12
	V12.5c0-6.627,5.372-12,12-12h40c6.627,0,12,5.373,12,12V25.833z"/>
<text transform="matrix(1 0 0 1 379.9409 15.834)"><tspan x="0" y="0" font-family="'MyriadPro-Regular'" font-size="12">Init Field ‘Y’</tspan><tspan x="11.003" y="14.4" font-family="'MyriadPro-Regular'" font-size="12">Point 1</tspan></text>
<path fill="#FFFFFF" stroke="#ED1C24" stroke-miterlimit="10" d="M511.167,25.833c0,6.627-5.373,12-12,12h-40.001
	c-6.628,0-12-5.373-12-12V12.5c0-6.627,5.372-12,12-12h40.001c6.627,0,12,5.373,12,12V25.833z"/>
<text transform="matrix(1 0 0 1 450.6079 15.834)"><tspan x="0" y="0" font-family="'MyriadPro-Regular'" font-size="12">Init Field ‘Y’</tspan><tspan x="11.003" y="14.4" font-family="'MyriadPro-Regular'" font-size="12">Point 2</tspan></text>
<path fill="#FFFFFF" stroke="#ED1C24" stroke-miterlimit="10" d="M581.166,25.833c0,6.627-5.373,12-12,12h-40
	c-6.627,0-12-5.373-12-12V12.5c0-6.627,5.373-12,12-12h40c6.627,0,12,5.373,12,12V25.833z"/>
<text transform="matrix(1 0 0 1 520.6069 15.834)"><tspan x="0" y="0" font-family="'MyriadPro-Regular'" font-size="12">Init Field ‘Y’</tspan><tspan x="11.003" y="14.4" font-family="'MyriadPro-Regular'" font-size="12">Point 3</tspan></text>
<path fill="#FFFFFF" stroke="#ED1C24" stroke-miterlimit="10" d="M219.833,107.833c0,6.627-5.373,12-12,12h-40
	c-6.627,0-12-5.373-12-12V94.5c0-6.627,5.373-12,12-12h40c6.627,0,12,5.373,12,12V107.833z"/>
<text transform="matrix(1 0 0 1 170.3013 97.834)"><tspan x="0" y="0" font-family="'MyriadPro-Regular'" font-size="12">DAXPY</tspan><tspan x="-0.024" y="14.4" font-family="'MyriadPro-Regular'" font-size="12">Point 0</tspan></text>
<path fill="#FFFFFF" stroke="#ED1C24" stroke-miterlimit="10" d="M290.5,107.833c0,6.627-5.373,12-12,12h-40
	c-6.627,0-12-5.373-12-12V94.5c0-6.627,5.373-12,12-12h40c6.627,0,12,5.373,12,12V107.833z"/>
<text transform="matrix(1 0 0 1 240.9683 97.834)"><tspan x="0" y="0" font-family="'MyriadPro-Regular'" font-size="12">DAXPY</tspan><tspan x="-0.024" y="14.4" font-family="'MyriadPro-Regular'" font-size="12">Point 1</tspan></text>
<path fill="#FFFFFF" stroke="#ED1C24" stroke-miterlimit="10" d="M361.168,107.833c0,6.627-5.373,12-12,12h-40.002
	c-6.628,0-12-5.373-12-12V94.5c0-6.627,5.372-12,12-12h40.002c6.627,0,12,5.373,12,12V107.833z"/>
<text transform="matrix(1 0 0 1 311.6353 97.834)"><tspan x="0" y="0" font-family="'MyriadPro-Regular'" font-size="12">DAXPY</tspan><tspan x="-0.024" y="14.4" font-family="'MyriadPro-Regular'" font-size="12">Point 2</tspan></text>
<path fill="#FFFFFF" stroke="#ED1C24" stroke-miterlimit="10" d="M431.167,107.833c0,6.627-5.373,12-12,12h-40
	c-6.627,0-12-5.373-12-12V94.5c0-6.627,5.373-12,12-12h40c6.627,0,12,5.373,12,12V107.833z"/>
<text transform="matrix(1 0 0 1 381.6343 97.834)"><tspan x="0" y="0" font-family="'MyriadPro-Regular'" font-size="12">DAXPY</tspan><tspan x="-0.024" y="14.4" font-family="'MyriadPro-Regular'" font-size="12">Point 3</tspan></text>
<g>
	<g>
		<line fill="none" stroke="#000000" stroke-width="2" stroke-miterlimit="10" x1="32.5" y1="37.833" x2="155.133" y2="81.606"/>
		<g>
			<path d="M161.954,84.041c-3.635,0.045-8.342,0.656-11.579,1.927l3.863-4.681l-0.026-6.068
				C155.913,78.252,159.169,81.706,161.954,84.041z"/>
		</g>
	</g>
</g>
<g>
	<g>
		<line fill="none" stroke="#000000" stroke-width="2" stroke-miterlimit="10" x1="103.167" y1="37.833" x2="225.8" y2="81.606"/>
		<g>
			<path d="M232.621,84.041c-3.635,0.045-8.342,0.656-11.578,1.927l3.863-4.681l-0.026-6.068
				C226.58,78.252,229.836,81.706,232.621,84.041z"/>
		</g>
	</g>
</g>
<g>
	<g>
		<line fill="none" stroke="#000000" stroke-width="2" stroke-miterlimit="10" x1="173.833" y1="37.833" x2="296.467" y2="81.606"/>
		<g>
			<path d="M303.288,84.041c-3.635,0.045-8.342,0.656-11.579,1.927l3.863-4.681l-0.026-6.068
				C297.247,78.252,300.502,81.706,303.288,84.041z"/>
		</g>
	</g>
</g>
<g>
	<g>
		<line fill="none" stroke="#000000" stroke-width="2" stroke-miterlimit="10" x1="243.833" y1="37.833" x2="366.466" y2="81.606"/>
		<g>
			<path d="M373.287,84.041c-3.635,0.045-8.342,0.656-11.578,1.927l3.863-4.681l-0.026-6.068
				C367.246,78.252,370.502,81.706,373.287,84.041z"/>
		</g>
	</g>
</g>
<g>
	<g>
		<line fill="none" stroke="#000000" stroke-width="2" stroke-miterlimit="10" x1="337.833" y1="37.833" x2="214.679" y2="80.147"/>
		<g>
			<path d="M207.83,82.5c2.812-2.303,6.11-5.717,7.846-8.73l-0.098,6.068l3.806,4.726C216.163,83.254,211.463,82.587,207.83,82.5z"
				/>
		</g>
	</g>
</g>
<g>
	<g>
		<line fill="none" stroke="#000000" stroke-width="2" stroke-miterlimit="10" x1="408.5" y1="38.604" x2="285.347" y2="80.917"/>
		<g>
			<path d="M278.498,83.271c2.812-2.303,6.11-5.717,7.846-8.73l-0.098,6.068l3.806,4.726
				C286.831,84.024,282.131,83.358,278.498,83.271z"/>
		</g>
	</g>
</g>
<g>
	<g>
		<line fill="none" stroke="#000000" stroke-width="2" stroke-miterlimit="10" x1="479.167" y1="37.833" x2="356.013" y2="80.147"/>
		<g>
			<path d="M349.165,82.5c2.812-2.303,6.109-5.717,7.846-8.73l-0.098,6.068l3.806,4.726C357.497,83.254,352.797,82.587,349.165,82.5
				z"/>
		</g>
	</g>
</g>
<g>
	<g>
		<line fill="none" stroke="#000000" stroke-width="2" stroke-miterlimit="10" x1="549.167" y1="37.833" x2="426.013" y2="80.147"/>
		<g>
			<path d="M419.165,82.5c2.812-2.303,6.109-5.717,7.846-8.73l-0.098,6.068l3.806,4.726C427.497,83.254,422.797,82.587,419.165,82.5
				z"/>
		</g>
	</g>
</g>
<path fill="#FFFFFF" stroke="#ED1C24" stroke-miterlimit="10" d="M343.333,193.5c0,6.627-5.373,12-12,12h-64
	c-6.627,0-12-5.373-12-12v-26c0-6.627,5.373-12,12-12h64c6.627,0,12,5.373,12,12V193.5z"/>
<text transform="matrix(1 0 0 1 263.5923 183.833)" font-family="'MyriadPro-Regular'" font-size="12">Checking Task</text>
<path fill="#FFFFFF" stroke="#2E3192" stroke-miterlimit="10" d="M282.333,268.833c0,6.627-5.373,12-12,12h-64
	c-6.627,0-12-5.373-12-12v-26c0-6.627,5.373-12,12-12h64c6.627,0,12,5.373,12,12V268.833z"/>
<text transform="matrix(1 0 0 1 210.5781 251.4995)"><tspan x="0" y="0" font-family="'MyriadPro-Regular'" font-size="12">Deletion of</tspan><tspan x="7.938" y="14.4" font-family="'MyriadPro-Regular'" font-size="12">input_lr</tspan></text>
<path fill="#FFFFFF" stroke="#2E3192" stroke-miterlimit="10" d="M400,268.833c0,6.627-5.373,12-12,12h-64c-6.627,0-12-5.373-12-12
	v-26c0-6.627,5.373-12,12-12h64c6.627,0,12,5.373,12,12V268.833z"/>
<text transform="matrix(1 0 0 1 328.2446 251.4995)"><tspan x="0" y="0" font-family="'MyriadPro-Regular'" font-size="12">Deletion of</tspan><tspan x="4.085" y="14.4" font-family="'MyriadPro-Regular'" font-size="12">output_lr</tspan></text>
<g>
	<g>
		<line fill="none" stroke="#000000" stroke-width="2" stroke-miterlimit="10" x1="267.814" y1="205.5" x2="243.382" y2="226.157"/>
		<g>
			<path d="M237.852,230.833c1.786-3.166,3.622-7.543,4.147-10.98l2.108,5.691l5.261,3.024
				C245.892,228.515,241.27,229.597,237.852,230.833z"/>
		</g>
	</g>
</g>
<g>
	<g>
		<line fill="none" stroke="#000000" stroke-width="2" stroke-miterlimit="10" x1="328.294" y1="205.5" x2="350.655" y2="225.945"/>
		<g>
			<path d="M356,230.833c-3.368-1.367-7.944-2.627-11.42-2.709l5.374-2.819l2.327-5.604
				C352.672,223.155,354.337,227.601,356,230.833z"/>
		</g>
	</g>
</g>
<g>
	<g>
		
			<line fill="none" stroke="#000000" stroke-width="2" stroke-miterlimit="10" x1="185.175" y1="119.833" x2="256.581" y2="152.488"/>
		<g>
			<path d="M263.167,155.5c-3.625-0.268-8.367-0.064-11.701,0.924l4.25-4.332l0.496-6.047
				C257.645,149.213,260.593,152.934,263.167,155.5z"/>
		</g>
	</g>
</g>
<g>
	<g>
		<line fill="none" stroke="#000000" stroke-width="2" stroke-miterlimit="10" x1="258.5" y1="119.833" x2="285.664" y2="150.109"/>
		<g>
			<path d="M290.5,155.5c-3.217-1.692-7.646-3.398-11.098-3.823l5.626-2.274l2.869-5.347
				C287.947,147.532,289.165,152.119,290.5,155.5z"/>
		</g>
	</g>
</g>
<g>
	<g>
		
			<line fill="none" stroke="#000000" stroke-width="2" stroke-miterlimit="10" x1="329.167" y1="119.833" x2="307.541" y2="149.638"/>
		<g>
			<path d="M303.288,155.5c0.978-3.501,1.715-8.19,1.404-11.653l3.407,5.022l5.83,1.68
				C310.541,151.328,306.311,153.483,303.288,155.5z"/>
		</g>
	</g>
</g>
<g>
	<g>
		
			<line fill="none" stroke="#000000" stroke-width="2" stroke-miterlimit="10" x1="399.166" y1="119.833" x2="341.812" y2="152.657"/>
		<g>
			<path d="M335.527,156.254c2.33-2.79,4.928-6.763,6.067-10.048l1.043,5.979l4.626,3.927
				C343.853,155.43,339.112,155.658,335.527,156.254z"/>
		</g>
	</g>
</g>
</svg>
