<?xml version="1.0" encoding="utf-8"?>
<!-- Generator: Adobe Illustrator 15.0.0, SVG Export Plug-In . SVG Version: 6.00 Build 0)  -->
<!DOCTYPE svg PUBLIC "-//W3C//DTD SVG 1.1//EN" "http://www.w3.org/Graphics/SVG/1.1/DTD/svg11.dtd">
<svg version="1.1" id="Layer_1" xmlns="http://www.w3.org/2000/svg" xmlns:xlink="http://www.w3.org/1999/xlink" x="0px" y="0px"
	 width="206.667px" height="280.333px" viewBox="0 0 206.667 280.333" enable-background="new 0 0 206.667 280.333"
	 xml:space="preserve">
<path fill="#FFFFFF" stroke="#ED1C24" stroke-miterlimit="10" d="M88.5,38.5c0,6.627-5.373,12-12,12h-64c-6.627,0-12-5.373-12-12
	v-26c0-6.627,5.373-12,12-12h64c6.627,0,12,5.373,12,12V38.5z"/>
<text transform="matrix(1 0 0 1 10.6064 22.5)"><tspan x="0" y="0" font-family="'MyriadPro-Regular'" font-size="12">Init Field Task</tspan><tspan x="11.172" y="14.4" font-family="'MyriadPro-Regular'" font-size="12">(Field ‘X’)</tspan></text>
<path fill="#FFFFFF" stroke="#ED1C24" stroke-miterlimit="10" d="M206.167,38.5c0,6.627-5.373,12-12,12h-64c-6.627,0-12-5.373-12-12
	v-26c0-6.627,5.373-12,12-12h64c6.627,0,12,5.373,12,12V38.5z"/>
<text transform="matrix(1 0 0 1 128.2729 22.5)"><tspan x="0" y="0" font-family="'MyriadPro-Regular'" font-size="12">Init Field Task</tspan><tspan x="11.352" y="14.4" font-family="'MyriadPro-Regular'" font-size="12">(Field ‘Y’)</tspan></text>
<path fill="#FFFFFF" stroke="#ED1C24" stroke-miterlimit="10" d="M149.499,117.833c0,6.627-5.373,12-12,12h-64
	c-6.627,0-12-5.373-12-12v-26c0-6.627,5.373-12,12-12h64c6.627,0,12,5.373,12,12V117.833z"/>
<text transform="matrix(1 0 0 1 75.6318 108.1665)" font-family="'MyriadPro-Regular'" font-size="12">DAXPY Task</text>
<path fill="#FFFFFF" stroke="#ED1C24" stroke-miterlimit="10" d="M149.5,192.5c0,6.627-5.373,12-12,12h-64c-6.627,0-12-5.373-12-12
	v-26c0-6.627,5.373-12,12-12h64c6.627,0,12,5.373,12,12V192.5z"/>
<text transform="matrix(1 0 0 1 69.7588 182.8335)" font-family="'MyriadPro-Regular'" font-size="12">Checking Task</text>
<path fill="#FFFFFF" stroke="#2E3192" stroke-miterlimit="10" d="M88.5,267.833c0,6.627-5.373,12-12,12h-64c-6.627,0-12-5.373-12-12
	v-26c0-6.627,5.373-12,12-12h64c6.627,0,12,5.373,12,12V267.833z"/>
<text transform="matrix(1 0 0 1 16.7446 250.5)"><tspan x="0" y="0" font-family="'MyriadPro-Regular'" font-size="12">Deletion of</tspan><tspan x="7.938" y="14.4" font-family="'MyriadPro-Regular'" font-size="12">input_lr</tspan></text>
<path fill="#FFFFFF" stroke="#2E3192" stroke-miterlimit="10" d="M206.167,267.833c0,6.627-5.373,12-12,12h-64
	c-6.627,0-12-5.373-12-12v-26c0-6.627,5.373-12,12-12h64c6.627,0,12,5.373,12,12V267.833z"/>
<text transform="matrix(1 0 0 1 134.4106 250.5)"><tspan x="0" y="0" font-family="'MyriadPro-Regular'" font-size="12">Deletion of</tspan><tspan x="4.085" y="14.4" font-family="'MyriadPro-Regular'" font-size="12">output_lr</tspan></text>
<g>
	<g>
		<line fill="none" stroke="#000000" stroke-width="2" stroke-miterlimit="10" x1="44.5" y1="50.5" x2="68.408" y2="74.683"/>
		<g>
			<path d="M73.5,79.833c-3.295-1.535-7.802-3.024-11.27-3.282l5.51-2.544l2.606-5.479C70.563,71.998,72.002,76.521,73.5,79.833z"/>
		</g>
	</g>
</g>
<g>
	<g>
		<line fill="none" stroke="#000000" stroke-width="2" stroke-miterlimit="10" x1="167.46" y1="50.5" x2="142.674" y2="74.767"/>
		<g>
			<path d="M137.499,79.833c1.55-3.288,3.063-7.787,3.336-11.253l2.518,5.522l5.467,2.633
				C145.349,76.936,140.818,78.352,137.499,79.833z"/>
		</g>
	</g>
</g>
<g>
	<g>
		<line fill="none" stroke="#000000" stroke-width="2" stroke-miterlimit="10" x1="105.5" y1="129.833" x2="105.499" y2="147.258"/>
		<g>
			<path d="M105.499,154.5c-1.264-3.408-3.422-7.636-5.707-10.257l5.707,2.064l5.706-2.064
				C108.92,146.864,106.762,151.092,105.499,154.5z"/>
		</g>
	</g>
</g>
<g>
	<g>
		<line fill="none" stroke="#000000" stroke-width="2" stroke-miterlimit="10" x1="73.98" y1="204.5" x2="49.549" y2="225.157"/>
		<g>
			<path d="M44.019,229.833c1.786-3.166,3.622-7.543,4.147-10.98l2.108,5.691l5.261,3.024
				C52.058,227.515,47.437,228.597,44.019,229.833z"/>
		</g>
	</g>
</g>
<g>
	<g>
		<line fill="none" stroke="#000000" stroke-width="2" stroke-miterlimit="10" x1="134.461" y1="204.5" x2="156.821" y2="224.946"/>
		<g>
			<path d="M162.166,229.833c-3.368-1.367-7.944-2.627-11.42-2.709l5.375-2.819l2.327-5.604
				C158.839,222.156,160.503,226.601,162.166,229.833z"/>
		</g>
	</g>
</g>
</svg>
