<?xml version="1.0" encoding="utf-8"?>
<!-- Generator: Adobe Illustrator 15.0.0, SVG Export Plug-In . SVG Version: 6.00 Build 0)  -->
<!DOCTYPE svg PUBLIC "-//W3C//DTD SVG 1.1//EN" "http://www.w3.org/Graphics/SVG/1.1/DTD/svg11.dtd">
<svg version="1.1" id="Layer_1" xmlns="http://www.w3.org/2000/svg" xmlns:xlink="http://www.w3.org/1999/xlink" x="0px" y="0px"
	 width="281.636px" height="178.808px" viewBox="0 0 281.636 178.808" enable-background="new 0 0 281.636 178.808"
	 xml:space="preserve">
<rect x="101.667" y="0.5" fill="none" stroke="#000000" stroke-miterlimit="10" width="80" height="41.019"/>
<text transform="matrix(1 0 0 1 139 23.167)" font-family="'MyriadPro-Regular'" font-size="12">is</text>
<text transform="matrix(1 0 0 1 129.8745 62.0806)" font-family="'ArialMT'" font-size="20.988">*</text>
<line fill="none" stroke="#000000" stroke-width="2" stroke-miterlimit="10" x1="141.667" y1="41.519" x2="141.667" y2="59.833"/>
<line fill="none" stroke="#000000" stroke-width="4" stroke-miterlimit="10" x1="40.5" y1="59.833" x2="248.5" y2="59.833"/>
<rect x="3.833" y="84.148" fill="none" stroke="#000000" stroke-miterlimit="10" width="60.833" height="41.019"/>
<rect x="74.5" y="84.148" fill="none" stroke="#000000" stroke-miterlimit="10" width="60.833" height="41.019"/>
<rect x="144.5" y="84.148" fill="none" stroke="#000000" stroke-miterlimit="10" width="60.833" height="41.019"/>
<rect x="217.176" y="84.148" fill="none" stroke="#000000" stroke-miterlimit="10" width="60.833" height="41.019"/>
<line fill="none" stroke="#000000" stroke-width="2" stroke-miterlimit="10" x1="34.25" y1="82.581" x2="76.687" y2="62.081"/>
<line fill="none" stroke="#000000" stroke-width="2" stroke-miterlimit="10" x1="247.593" y1="82.581" x2="206.033" y2="62.081"/>
<line fill="none" stroke="#000000" stroke-width="2" stroke-miterlimit="10" x1="104.917" y1="84.148" x2="126.5" y2="59.833"/>
<line fill="none" stroke="#000000" stroke-width="2" stroke-miterlimit="10" x1="178.167" y1="82.581" x2="165.167" y2="59.833"/>
<text transform="matrix(1 0 0 1 195.8335 50.6763)" font-family="'MyriadPro-Regular'" font-size="12">disjoint_ip</text>
<line fill="none" stroke="#000000" stroke-width="2" stroke-miterlimit="10" x1="34.25" y1="125.167" x2="34.25" y2="143.482"/>
<line fill="none" stroke="#000000" stroke-width="2" stroke-miterlimit="10" x1="104.917" y1="125.167" x2="104.917" y2="143.482"/>
<line fill="none" stroke="#000000" stroke-width="2" stroke-miterlimit="10" x1="174.916" y1="125.167" x2="174.916" y2="143.482"/>
<line fill="none" stroke="#000000" stroke-width="2" stroke-miterlimit="10" x1="247.593" y1="125.167" x2="247.593" y2="143.482"/>
<line fill="none" stroke="#000000" stroke-width="4" stroke-miterlimit="10" x1="3.833" y1="143.482" x2="64.666" y2="143.482"/>
<text transform="matrix(1 0 0 1 23.208 147.0806)" font-family="'ArialMT'" font-size="20.988">*</text>
<rect x="0.5" y="157.324" fill="none" stroke="#000000" stroke-miterlimit="10" width="30.417" height="20.509"/>
<rect x="37.167" y="157.324" fill="none" stroke="#000000" stroke-miterlimit="10" width="30.417" height="20.509"/>
<line fill="none" stroke="#000000" stroke-miterlimit="10" x1="16.197" y1="157.247" x2="26.011" y2="143.245"/>
<line fill="none" stroke="#000000" stroke-miterlimit="10" x1="52.375" y1="157.324" x2="40.5" y2="143.482"/>
<line fill="none" stroke="#000000" stroke-width="4" stroke-miterlimit="10" x1="74.708" y1="143.719" x2="135.542" y2="143.719"/>
<text transform="matrix(1 0 0 1 94.0835 147.3179)" font-family="'ArialMT'" font-size="20.988">*</text>
<rect x="71.375" y="157.562" fill="none" stroke="#000000" stroke-miterlimit="10" width="30.417" height="20.509"/>
<rect x="108.042" y="157.562" fill="none" stroke="#000000" stroke-miterlimit="10" width="30.416" height="20.509"/>
<line fill="none" stroke="#000000" stroke-miterlimit="10" x1="87.073" y1="157.484" x2="96.887" y2="143.482"/>
<line fill="none" stroke="#000000" stroke-miterlimit="10" x1="123.25" y1="157.562" x2="111.376" y2="143.719"/>
<line fill="none" stroke="#000000" stroke-width="4" stroke-miterlimit="10" x1="144.708" y1="143.482" x2="205.542" y2="143.482"/>
<text transform="matrix(1 0 0 1 164.083 147.0806)" font-family="'ArialMT'" font-size="20.988">*</text>
<rect x="141.375" y="157.324" fill="none" stroke="#000000" stroke-miterlimit="10" width="30.417" height="20.509"/>
<rect x="178.042" y="157.324" fill="none" stroke="#000000" stroke-miterlimit="10" width="30.416" height="20.509"/>
<line fill="none" stroke="#000000" stroke-miterlimit="10" x1="157.072" y1="157.247" x2="166.886" y2="143.245"/>
<line fill="none" stroke="#000000" stroke-miterlimit="10" x1="193.25" y1="157.324" x2="181.375" y2="143.482"/>
<line fill="none" stroke="#000000" stroke-width="4" stroke-miterlimit="10" x1="217.386" y1="143.957" x2="278.219" y2="143.957"/>
<text transform="matrix(1 0 0 1 236.7612 147.5552)" font-family="'ArialMT'" font-size="20.988">*</text>
<rect x="214.053" y="157.799" fill="none" stroke="#000000" stroke-miterlimit="10" width="30.416" height="20.509"/>
<rect x="250.719" y="157.799" fill="none" stroke="#000000" stroke-miterlimit="10" width="30.416" height="20.509"/>
<line fill="none" stroke="#000000" stroke-miterlimit="10" x1="229.75" y1="157.721" x2="239.565" y2="143.719"/>
<line fill="none" stroke="#000000" stroke-miterlimit="10" x1="265.928" y1="157.799" x2="254.053" y2="143.957"/>
</svg>
