<?xml version="1.0" encoding="utf-8"?>
<!-- Generator: Adobe Illustrator 15.0.0, SVG Export Plug-In . SVG Version: 6.00 Build 0)  -->
<!DOCTYPE svg PUBLIC "-//W3C//DTD SVG 1.1//EN" "http://www.w3.org/Graphics/SVG/1.1/DTD/svg11.dtd">
<svg version="1.1" id="Layer_1" xmlns="http://www.w3.org/2000/svg" xmlns:xlink="http://www.w3.org/1999/xlink" x="0px" y="0px"
	 width="308.167px" height="88.667px" viewBox="0 0 308.167 88.667" enable-background="new 0 0 308.167 88.667"
	 xml:space="preserve">
<rect x="115.75" y="0.5" fill="#FFFFFF" stroke="#000000" stroke-miterlimit="10" width="75.999" height="30.001"/>
<line fill="none" stroke="#000000" stroke-width="4" stroke-miterlimit="10" x1="0.5" y1="49.501" x2="149" y2="49.501"/>
<rect x="0.5" y="65.5" fill="#FFFFFF" stroke="#000000" stroke-miterlimit="10" width="26.667" height="22.667"/>
<rect x="41.75" y="65.5" fill="#FFFFFF" stroke="#000000" stroke-miterlimit="10" width="26.667" height="22.667"/>
<rect x="81.084" y="65.5" fill="#FFFFFF" stroke="#000000" stroke-miterlimit="10" width="26.667" height="22.667"/>
<rect x="122.333" y="65.5" fill="#FFFFFF" stroke="#000000" stroke-miterlimit="10" width="26.667" height="22.667"/>
<line fill="none" stroke="#000000" stroke-miterlimit="10" x1="13.833" y1="65.5" x2="41.75" y2="49.501"/>
<line fill="none" stroke="#000000" stroke-miterlimit="10" x1="55.083" y1="65.5" x2="68.417" y2="49.501"/>
<line fill="none" stroke="#000000" stroke-miterlimit="10" x1="94.417" y1="65.5" x2="81.084" y2="49.501"/>
<line fill="none" stroke="#000000" stroke-miterlimit="10" x1="135.666" y1="65.5" x2="107.751" y2="49.501"/>
<text transform="matrix(1 0 0 1 68.417 52.9307)" font-family="'ArialMT'" font-size="20.988">*</text>
<text transform="matrix(1 0 0 1 0.5 39.501)" font-family="'MyriadPro-Regular'" font-size="12">disjoint_lp</text>
<text transform="matrix(1 0 0 1 132.8325 11.168)"><tspan x="0" y="0" font-family="'MyriadPro-Regular'" font-size="12">stencil_lr</tspan><tspan x="5.706" y="14.4" font-family="'MyriadPro-Regular'" font-size="12">(is,fs,0)</tspan></text>
<line fill="none" stroke="#000000" stroke-width="4" stroke-miterlimit="10" x1="159.167" y1="49.501" x2="307.667" y2="49.501"/>
<rect x="159.167" y="65.5" fill="#FFFFFF" stroke="#000000" stroke-miterlimit="10" width="26.667" height="22.667"/>
<rect x="200.416" y="65.5" fill="#FFFFFF" stroke="#000000" stroke-miterlimit="10" width="26.667" height="22.667"/>
<rect x="239.751" y="65.5" fill="#FFFFFF" stroke="#000000" stroke-miterlimit="10" width="26.667" height="22.667"/>
<rect x="280.999" y="65.5" fill="#FFFFFF" stroke="#000000" stroke-miterlimit="10" width="26.668" height="22.667"/>
<line fill="none" stroke="#000000" stroke-miterlimit="10" x1="172.5" y1="65.5" x2="200.416" y2="49.501"/>
<line fill="none" stroke="#000000" stroke-miterlimit="10" x1="213.75" y1="65.5" x2="227.083" y2="49.501"/>
<line fill="none" stroke="#000000" stroke-miterlimit="10" x1="253.084" y1="65.5" x2="239.751" y2="49.501"/>
<line fill="none" stroke="#000000" stroke-miterlimit="10" x1="294.333" y1="65.5" x2="266.418" y2="49.501"/>
<text transform="matrix(1 0 0 1 258.8335 39.501)" font-family="'MyriadPro-Regular'" font-size="12">ghost_lp</text>
<line stroke="#000000" stroke-miterlimit="10" x1="74.75" y1="49.501" x2="149" y2="30.501"/>
<line stroke="#000000" stroke-miterlimit="10" x1="233.417" y1="49.001" x2="159.167" y2="30.001"/>
</svg>
